<svg xmlns="http://www.w3.org/2000/svg" viewBox="0 0 264 300"><title>stack black</title><g id="Layer_3" data-name="Layer 3"><path d="M259.7,76.46A16.78,16.78,0,0,0,253,71.7L143.09,8.26a16.92,16.92,0,0,0-16.89,0L16.29,71.72a16.75,16.75,0,0,0-6.65,4.69A16.87,16.87,0,0,0,5.08,87.94V218.06a16.87,16.87,0,0,0,8.44,14.62L126.2,297.74a16.91,16.91,0,0,0,16.89,0l112.68-65.06a16.89,16.89,0,0,0,8.44-14.62V87.94A16.91,16.91,0,0,0,259.7,76.46ZM134.64,42.38l78.1,45.09-79,45.06L56.32,87.6Zm95.8,165.93-95.8,55.31L38.85,208.31V182.06l86.33,50.1a16.85,16.85,0,0,0,16.84.07l88.42-50.42Zm0-65.37-96.71,55.14L38.85,143V116.51l86.33,50.1a16.91,16.91,0,0,0,16.84.07l88.42-50.42Z"/></g></svg>