<?xml version="1.0" encoding="UTF-8"?>
<svg width="28px" height="34px" viewBox="0 0 28 34" version="1.1" xmlns="http://www.w3.org/2000/svg" xmlns:xlink="http://www.w3.org/1999/xlink">
    <!-- Generator: Sketch 61 (89581) - https://sketch.com -->
    <title>ERP_Logo</title>
    <desc>Created with Sketch.</desc>
    <g id="Page-1" stroke="none" stroke-width="1" fill="none" fill-rule="evenodd">
        <g id="ERP_Logo" fill="#272F3D" fill-rule="nonzero">
            <path d="M0,21.04 L0,21.7 L4.23,21.7 C4.29,21.6 4.48,21.2 4.48,20.28 C4.48,19.62 4.34,18.88 4.34,18.88 C4.34,18.88 2.81,16.45 4.61,14.35 C6.15,12.55 8.51,13.65 8.51,13.65 L11.14,13.32 C11.14,13.32 13,14.02 14.14,16.17 C14.3,16.62 14.31,16.87 14.7,16.42 L15.35,15.7 C15.61,17.58 14.43,17.34 14.43,17.34 C14.43,17.34 14.56,17.84 14.45,18.89 L14.72,18.57 C14.72,18.57 15.16,18.97 14.75,19.75 C14.68,19.95 14.92,20.22 15.21,19.95 L16.11,18.95 C16.21,19.22 16.41,21.05 14.81,21.69 L18,21.69 C17.77,20.89 17.63,19.87 17.63,18.75 C17.63,17.99 17.7,17.27 17.81,16.63 C17.76,15.78 17.64,15.75 17.45,15.43 C17.22,15.03 16.93,14.5 16.88,14.19 C16.83,13.89 16.55,13.63 16.55,13.63 C16.55,13.63 16.63,13.18 16.88,12.56 C17.25,11.66 17.98,11.38 18.31,11.24 C18.46,11.18 18.47,11.06 18.38,10.74 C18.33,10.57 18.28,10.54 18.22,10.54 C18.22,10.54 18.22,10.54 18.2,10.54 C18.18,10.54 18.15,10.54 18.13,10.52 C18.13,10.52 18.13,10.5 18.11,10.5 C18.09,10.5 18.07,10.47 18.06,10.44 C18.04,10.4 18.02,10.34 18.03,10.3 C18.03,10.22 18.03,10.15 18.08,10.1 C18.1,10.06 18.1,9.98 18.1,9.98 C18.1,9.98 18.1,9.96 18.1,9.95 C18.1,9.43 18.5,9.01 18.97,9.01 C19.44,9.01 19.83,9.44 19.83,9.96 C19.83,9.96 19.83,9.98 19.83,10.01 C19.83,10.03 19.83,10.08 19.83,10.13 C19.88,10.16 19.9,10.23 19.9,10.31 C19.9,10.36 19.88,10.41 19.86,10.45 C19.84,10.48 19.82,10.5 19.81,10.52 C19.81,10.52 19.81,10.54 19.79,10.54 C19.76,10.56 19.74,10.57 19.71,10.56 C19.71,10.56 19.71,10.56 19.69,10.56 C19.64,10.56 19.59,10.6 19.53,10.78 C19.43,11.08 19.46,11.21 19.6,11.28 C19.7,11.31 19.76,11.36 19.84,11.4 C19.84,11.4 19.84,11.4 19.86,11.4 C19.88,11.43 19.91,11.44 19.93,11.46 C19.93,11.46 19.95,11.46 19.96,11.48 C20.54,11.88 20.76,12.45 20.86,13.16 C20.86,13.2 20.88,13.23 20.88,13.26 C20.63,13.26 20.68,13.62 20.73,13.86 C20.83,14.12 21.93,17.23 22.05,18.46 C22.22,20.12 21.22,19.94 21.22,19.94 L21.22,20.7 C22.92,20.87 23.12,19.47 23.17,18.7 C23.2,18.23 23.37,15.46 23.53,13.5 C24.16,13.7 24.87,13.83 25.63,13.83 C26.27,13.85 26.88,13.78 27.43,13.63 C25.73,13.5 24.3,12.79 23.68,11.85 C23.7,11.67 23.71,11.55 23.73,11.55 C25.13,3.23 20.2,2.75 20.2,2.75 L16.2,0.03 C16.2,0.03 14.96,0.16 14.27,1.75 C14.27,1.75 12.57,2.85 10.1,2.03 C10,1.99 9.9,1.96 9.8,1.93 C8.93,1.56 8,1.35 7,1.35 C3.14,1.32 0,4.47 0,8.36 L0,15.6 C0,15.6 0.82,14.55 0.82,12.5 C1.66,16.47 0.87,18.75 0.36,19.73 C0.36,19.73 0,20.45 0,21.03 M5.77,18.53 C5.67,18.79 5.17,19.96 5.57,21.23 L5.57,21.7 L6.57,21.7 L6.57,19.1 C6.29,18.93 6.02,18.74 5.77,18.52 M10.41,19.86 C10.38,19.98 10.09,21.06 10.74,21.7 L12.57,21.7 L11.49,19.62 L11.29,19.66 C11.01,19.76 10.72,19.82 10.42,19.86" id="Shape"></path>
            <path d="M7.08,31.56 L1.78,31.56 L1.78,29.43 L6.88,29.43 L6.88,27.76 L1.8,27.76 L1.8,25.6 L7.1,25.6 L7.1,23.86 L0,23.86 L0,33.32 L7.08,33.32 L7.08,31.56 Z M21.2,23.84 C19.7,23.84 18.23,23.86 16.74,23.86 L16.74,33.32 L18.52,33.32 L18.52,25.55 L21.2,25.55 C23.47,25.55 23.48,28.9 21.2,28.9 L19.84,28.9 L19.84,30.54 L21.2,30.54 C25.84,30.54 25.82,23.84 21.2,23.84" id="Shape"></path>
            <path d="M15.9,27.1 C15.9,25.45 14.7,23.87 12.48,23.86 C10.98,23.86 9.48,23.84 7.98,23.84 L7.98,33.32 L9.78,33.32 L9.78,30.44 L14.9,34 L15.93,32.5 L12.93,30.45 C15.41,30.39 15.89,28.37 15.89,27.09 M14.09,27.22 C14.09,27.97 13.61,28.92 12.47,28.92 L9.77,28.92 L9.77,25.52 L12.47,25.52 C13.59,25.52 14.09,26.46 14.09,27.22" id="Shape"></path>
            <path d="M26.38,23.9 L26.62,23.9 L26.62,22.65 L26.35,22.65 L25.95,23.19 L25.58,22.64 L25.31,22.64 L25.31,23.88 L25.55,23.88 L25.55,23 L25.95,23.53 L25.99,23.53 L26.39,22.99 L26.39,23.89 L26.38,23.9 Z M24.54,23.9 L24.77,23.9 L24.77,22.86 L25.17,22.86 L25.17,22.66 L24.15,22.66 L24.15,22.86 L24.55,22.86 L24.55,23.89 L24.54,23.9 Z" id="Shape"></path>
        </g>
    </g>
</svg>