<?xml version="1.0" encoding="UTF-8"?>
<svg width="84px" height="34px" viewBox="0 0 84 34" version="1.1" xmlns="http://www.w3.org/2000/svg" xmlns:xlink="http://www.w3.org/1999/xlink">
    <!-- Generator: Sketch 61 (89581) - https://sketch.com -->
    <title>Group_Elephant_Logo</title>
    <desc>Created with Sketch.</desc>
    <g id="Page-1" stroke="none" stroke-width="1" fill="none" fill-rule="evenodd">
        <g id="Group_Elephant_Logo" fill="#272F3D" fill-rule="nonzero">
            <path d="M12.48,15.13 C11.55,15.28 10.68,15.25 10.02,15.08 C9.99,15.08 9.97,15.08 9.95,15.08 C9.72,15 9.48,14.98 9.25,14.98 C9.15,14.98 9.05,14.98 8.95,14.98 C8.75,15 8.55,15.05 8.32,15.14 C8.29,15.14 8.26,15.16 8.22,15.17 C8.19,15.19 8.15,15.21 8.12,15.23 C8.04,15.27 7.97,15.31 7.9,15.35 C7.5,15.59 7.12,15.92 6.78,16.35 C6.18,17.11 5.38,19.55 4.02,19.15 C5.22,19.65 5.64,18.65 6.22,18.15 C6.16,18.61 6.22,19.07 6.38,19.49 C6.38,22.13 4.65,23.19 4.65,23.19 C4.61,23.26 4.89,23.49 5.25,23.69 C5.63,23.93 5.95,24.06 5.98,24.01 L6.24,23.24 L7.67,21.49 L7.77,21.39 C7.91,21.33 8.07,21.25 8.27,21.14 C8.49,21.01 8.67,20.86 8.85,20.7 C8.69,21 8.45,21.26 8.15,21.5 C9.03,23.38 8.8,23.9 8.8,23.9 C8.8,23.96 9.08,24 9.42,24 C9.76,24 10.02,23.96 10.02,23.9 L10.02,23.13 L9.22,20.83 C10.16,20.95 11.06,20.86 11.89,20.58 C12.07,22.28 11.54,23.78 11.49,23.88 C11.49,23.88 11.49,23.88 11.49,23.9 C11.49,23.96 11.83,24 12.25,24 C12.65,24 13,23.96 13,23.9 L13,23.22 L13.37,21.92 C13.7,22.35 13.99,22.82 14.21,23.37 L14.35,23.97 C14.37,24.02 14.68,23.97 15.05,23.84 C15.41,23.71 15.69,23.57 15.65,23.5 L15.17,22.8 L13.99,19.8 C13.99,19.73 13.97,19.67 13.95,19.62 C13.95,19.55 13.93,19.49 13.93,19.42 C13.93,19.38 13.93,19.34 13.93,19.29 C13.93,19.26 13.93,19.23 13.93,19.19 C13.93,19.16 13.93,19.11 13.95,19.07 C13.99,18.93 14.05,18.81 14.15,18.72 C14.27,18.6 14.45,18.54 14.65,18.52 L12.45,17.82 L12.43,17.82 C12.06,16.94 12.1,15.95 12.49,15.12 L12.48,15.13 Z M36.18,22.11 L36.81,20.44 C36.91,20.61 36.97,20.78 37.04,20.96 L36.18,22.12 L36.18,22.11 Z M47.24,17.57 C46.14,17.59 45.04,17.2 44.19,16.4 C44.07,16.28 43.97,16.17 43.87,16.06 L43.84,15.96 C44,15.16 43.94,13.91 43.62,12.53 C43.19,10.69 42.46,9.23 41.82,8.91 L41.82,8.87 L36.9,7.13 L36.88,7.15 C35.42,8.58 33.08,9.43 30.53,9.25 C29.99,9.23 29.46,9.15 28.95,9.03 C28.78,8.99 28.63,8.97 28.5,8.96 C28.38,8.96 28.27,8.96 28.15,8.96 C26.85,8.96 25.71,9.54 24.95,10.46 C24.45,11.06 24.01,11.82 23.7,12.71 C23.23,14.11 23.27,17.71 21.54,18.41 C21.54,18.13 21.44,17.83 21.16,17.67 C21.16,17.67 21.06,17.62 21.06,17.62 C20.99,17.6 20.99,17.6 20.88,17.58 C20.81,17.58 20.5,17.51 20.2,17.88 C20.2,17.88 19.5,18.54 19.22,18.7 C18.78,18.94 18.42,19 17.95,18.9 C17.43,18.63 17.62,18.22 17.35,17 C17.03,15.65 16.45,14.64 16.03,14.73 C15.95,14.76 15.88,14.81 15.83,14.87 L13.38,13.9 C13.28,13.97 13.16,14.13 13.03,14.34 C12.99,14.4 12.95,14.47 12.91,14.54 C12.86,14.66 12.81,14.78 12.74,14.9 C12.38,15.74 12.36,16.7 12.74,17.6 L15.41,18.76 L15.98,19 C16.28,19.43 16.88,19.94 18.08,19.92 C18.18,19.92 18.28,19.9 18.38,19.88 C18.83,19.82 19.35,19.63 19.86,19.18 C20.16,18.94 20.44,18.55 20.53,18.42 C20.56,18.35 20.65,18.29 20.73,18.27 C20.8,18.24 20.83,18.24 20.91,18.27 C20.93,18.29 20.94,18.29 20.95,18.3 C21,18.33 21.03,18.38 21.05,18.43 C21.07,18.47 21.08,18.51 21.08,18.55 C21.05,18.55 21.02,18.55 20.98,18.55 C21.03,18.55 21.05,18.55 21.08,18.55 C21.1,18.77 20.96,18.88 20.86,18.9 C20.84,18.9 20.82,18.9 20.81,18.9 C20.79,18.9 20.79,18.9 20.78,18.88 C20.76,18.86 20.72,18.84 20.68,18.84 C20.62,18.86 20.56,18.92 20.58,18.98 C20.6,19.05 20.64,19.08 20.68,19.1 C20.76,19.13 20.88,19.16 21.08,19.1 C21.28,19 21.36,18.9 21.43,18.8 C21.48,18.73 21.53,18.65 21.53,18.55 C23.39,18.35 23.27,16.3 24.16,15.45 C24.26,15.83 24.42,16.2 24.62,16.53 C24.74,17.08 24.82,17.77 24.85,18.53 C24.78,22.43 23.99,23.85 23.98,23.87 C23.98,23.97 24.54,24.07 25.25,24.07 C25.95,24.07 26.52,23.97 26.52,23.87 L26.59,22.41 L27.41,20.23 L27.51,19.93 C27.94,19.83 28.41,19.65 28.85,19.39 C29.2,19.19 29.52,18.94 29.79,18.69 C29.53,19.13 29.14,19.59 28.65,19.99 C29.75,22.53 29.61,23.87 29.61,23.87 C29.61,23.97 30.06,24.07 30.61,24.07 C31.17,24.07 31.61,23.97 31.61,23.87 L31.58,22.62 L30.34,18.72 C31.88,18.67 33.34,18.26 34.61,17.58 C35.24,20.78 33.77,23.88 33.77,23.88 C33.77,23.98 34.33,24.06 35.01,24.06 C35.68,24.06 36.23,23.99 36.23,23.88 L36.18,23.38 C36.3,23.42 36.44,23.46 36.58,23.5 C37.18,23.66 37.7,23.7 37.73,23.6 L39.23,20.86 L38.13,17.34 C38.57,16.79 38.9,15.97 39.03,15.04 L35.43,13.94 L35.41,13.96 C34.59,11.96 35.05,9.69 36.47,8.16 C35.4,9.68 35.14,11.68 35.91,13.46 L40.71,15.54 L40.73,15.54 L40.73,14.31 L41.73,14.51 C41.93,14.96 42.19,15.41 42.53,15.79 C42.33,16.37 42.13,17.49 42.63,19.27 C42.8,19.87 43.11,20.31 43.28,20.54 C43.36,20.64 43.42,20.74 43.42,20.88 C43.42,21.01 43.38,21.12 43.29,21.2 C43.27,21.23 43.25,21.25 43.23,21.26 C43.17,21.31 43.08,21.34 42.98,21.34 C42.45,21.34 42.33,20.96 42.35,20.78 C42.35,20.74 42.37,20.72 42.39,20.7 C42.41,20.68 42.42,20.67 42.44,20.67 C42.5,20.63 42.54,20.59 42.54,20.54 C42.58,20.44 42.52,20.31 42.41,20.3 C42.31,20.3 42.24,20.34 42.17,20.4 C42.07,20.5 41.97,20.68 41.97,21.02 C41.97,21.36 42.09,21.52 42.2,21.69 C42.58,22.23 43.48,22.39 44.05,21.92 C44.08,21.9 44.18,21.82 44.2,21.79 C44.27,21.69 44.28,21.71 44.37,21.55 C44.41,21.45 44.69,20.99 44.27,20.35 C44.27,20.35 43.43,19.35 43.79,16.87 C44.85,17.54 46.09,17.8 47.29,17.63 L47.24,17.57 Z M77.58,8.69 C76.18,8.69 74.91,8.14 73.96,7.25 C75.86,7.1 77.36,5.27 77.36,3.33 C77.36,3.23 77.36,3.13 77.36,3.03 C77.36,2.98 77.36,2.93 77.36,2.86 C77.37,1.28 76.1,0 74.53,0 C74.2,0 73.9,0.06 73.61,0.16 C72.73,0.42 72.15,1.13 71.81,1.16 C71.64,1.16 71.59,1.11 71.54,1.04 C71.44,0.94 71.34,0.9 71.24,0.9 C71,0.9 70.81,1.1 70.81,1.3 C70.81,1.44 70.87,1.54 70.95,1.62 C70.99,1.67 71.37,2.06 72.57,1.49 C73.24,1.17 73.93,1.26 74.27,1.35 C74.47,1.42 74.67,1.52 74.81,1.65 C74.81,1.67 74.83,1.68 74.83,1.69 C74.87,1.73 74.91,1.77 74.93,1.81 C74.95,1.83 74.97,1.85 74.98,1.87 C75.01,1.91 75.04,1.95 75.06,1.99 C75.08,2.02 75.09,2.05 75.11,2.09 C75.11,2.12 75.14,2.15 75.15,2.19 C75.17,2.23 75.18,2.29 75.19,2.33 C75.19,2.36 75.21,2.39 75.21,2.41 C75.23,2.49 75.23,2.57 75.23,2.65 C75.23,2.75 75.23,2.82 75.21,2.91 C75.21,2.93 75.19,2.96 75.19,2.99 C75.17,3.04 75.16,3.09 75.14,3.14 C75.14,3.17 75.12,3.2 75.1,3.24 C75.07,3.27 75.05,3.32 75.02,3.36 C75.02,3.39 74.99,3.41 74.97,3.44 C74.94,3.48 74.91,3.52 74.87,3.54 C74.87,3.58 74.84,3.6 74.81,3.64 C74.79,3.66 74.75,3.69 74.71,3.72 C74.69,3.74 74.67,3.76 74.64,3.78 C74.6,3.8 74.54,3.83 74.5,3.85 C74.47,3.85 74.45,3.88 74.42,3.89 C74.27,3.97 74.12,4.01 73.92,4.02 C73.76,4.02 73.4,3.97 73.12,3.92 C72.86,3.86 66.72,2.18 66.27,2.05 C66.24,2.05 66.24,2.05 66.24,2.05 L66.24,2.08 C64.14,4.4 60.68,5.93 56.76,5.93 C55.92,5.93 55.11,5.86 54.33,5.73 C53.95,5.66 53.65,5.66 53.39,5.69 C51.89,5.76 50.56,6.46 49.69,7.54 C49.07,8.24 48.53,9.19 48.16,10.26 C47.53,12.1 47.43,14.98 48,17.66 C48.03,17.13 48.2,14.06 48.66,13.26 C48.76,13.76 48.94,14.26 49.18,14.69 C49.22,15.03 49.25,15.44 49.26,15.93 C48.89,19.31 46.86,23.77 46.86,23.77 C46.86,23.9 47.56,24 48.41,24 C49.28,24 49.97,23.9 49.97,23.78 L50.04,22 C50.04,22 51.3,19.3 52.3,17.54 C52.3,17.54 52.33,17.52 52.35,17.52 C52.91,17.4 53.5,17.17 54.05,16.84 C54.5,16.58 54.88,16.28 55.21,15.97 C54.75,16.74 53.99,17.5 53.01,18.07 C52.81,18.17 52.63,18.27 52.44,18.37 C52.74,22.31 52.34,23.77 52.34,23.77 C52.34,23.91 52.87,24.01 53.54,24.01 C54.22,24.01 54.77,23.91 54.77,23.79 C54.77,23.79 54.69,22.54 54.57,22.01 C54.57,22.01 55.07,19.29 56.07,16.05 C57.67,15.97 59.19,15.58 60.57,14.93 C61.53,19 59.47,23.79 59.47,23.79 C59.47,23.92 60.13,24.02 60.95,24.02 C61.78,24.02 62.45,23.92 62.45,23.8 L62.25,22.02 L64.29,16.76 C65.35,17.94 66.52,19.59 67.41,21.83 L67.34,23.81 C67.34,23.94 67.96,24.04 68.72,24.04 C69.49,24.04 70.12,23.94 70.12,23.82 L70.12,22 L67.26,13 C67.4,12.54 67.5,12.04 67.56,11.5 C67.56,11.22 67.58,10.94 67.56,10.66 L62.43,9.12 L62.47,8.95 C62.7,6.35 64.44,4.18 66.81,3.32 C64.85,4.35 63.47,6.32 63.28,8.64 L68.88,11.06 L68.88,9.2 C69.03,9.22 69.18,9.23 69.31,9.23 C70.31,9.23 71.27,9 72.11,8.58 C71.71,8.06 71.37,7.46 71.13,6.82 L71.15,6.82 C72.3,8.46 74.21,9.52 76.35,9.52 C78.35,9.52 80.15,8.62 81.31,7.19 C80.35,8.09 79.05,8.67 77.61,8.67 L77.58,8.69 Z M41.17,29.47 C41.17,30.12 40.69,30.65 39.99,30.65 C39.27,30.65 38.79,30.12 38.79,29.47 C38.79,28.81 39.23,28.27 39.99,28.27 C40.72,28.27 41.16,28.81 41.16,29.47 M42.2,29.47 C42.2,28.24 41.35,27.27 40.06,27.27 C39.59,27.27 39.03,27.47 38.71,27.95 L38.65,27.37 L37.68,27.37 L37.68,34 L38.72,34 L38.72,31.06 C39.02,31.52 39.68,31.66 40.12,31.66 C41.46,31.66 42.22,30.69 42.22,29.46 M28.37,28.98 L26.12,28.98 C26.27,28.43 26.72,28.16 27.29,28.16 C27.87,28.16 28.29,28.43 28.36,28.98 M27.24,27.25 C25.89,27.25 25.02,28.15 25.02,29.43 C25.02,30.77 25.88,31.66 27.32,31.66 C27.96,31.66 28.68,31.44 29.12,30.98 L28.46,30.33 C28.22,30.58 27.72,30.73 27.34,30.73 C26.61,30.73 26.16,30.35 26.09,29.83 L29.35,29.83 C29.51,28.11 28.65,27.25 27.25,27.25" id="Shape"></path>
            <polygon id="Path" points="30.37 25.63 31.4 25.63 31.4 31.55 30.37 31.55"></polygon>
            <path d="M35.67,28.98 L33.42,28.98 C33.57,28.43 34.02,28.16 34.59,28.16 C35.17,28.16 35.59,28.43 35.66,28.98 M34.54,27.25 C33.19,27.25 32.32,28.15 32.32,29.43 C32.32,30.77 33.18,31.66 34.62,31.66 C35.26,31.66 35.98,31.44 36.42,30.98 L35.76,30.33 C35.52,30.58 35.02,30.73 34.64,30.73 C33.91,30.73 33.46,30.35 33.39,29.83 L36.66,29.83 C36.82,28.11 35.94,27.25 34.54,27.25" id="Shape"></path>
            <path d="M43.19,25.62 L43.17,31.55 L44.21,31.55 L44.21,29.4 C44.21,28.8 44.63,28.27 45.24,28.27 C45.79,28.27 46.19,28.59 46.19,29.37 L46.19,31.55 L47.22,31.55 L47.22,29.35 C47.22,28.12 46.7,27.31 45.52,27.31 C45.04,27.31 44.58,27.46 44.22,27.95 L44.22,25.63 L43.16,25.63 L43.19,25.62 Z" id="Path"></path>
            <path d="M50.37,30.73 C49.67,30.73 49.13,30.25 49.13,29.46 C49.13,28.66 49.68,28.19 50.36,28.19 C51.99,28.19 51.99,30.72 50.36,30.72 L50.37,30.73 Z M52.63,31.55 L52.63,27.37 L51.63,27.37 L51.6,27.95 C51.37,27.53 50.83,27.27 50.27,27.27 C49.05,27.27 48.09,28.02 48.09,29.47 C48.09,30.92 48.99,31.69 50.23,31.67 C50.7,31.67 51.35,31.43 51.59,30.94 L51.64,31.54 L52.62,31.54 L52.63,31.55 Z" id="Shape"></path>
            <path d="M57.83,31.55 L57.83,29.35 C57.83,28.05 57.03,27.3 56.06,27.3 C55.53,27.3 55.11,27.52 54.68,27.93 L54.62,27.36 L53.69,27.36 L53.69,31.56 L54.71,31.56 L54.71,29.4 C54.71,28.76 55.14,28.22 55.77,28.22 C56.43,28.22 56.77,28.72 56.77,29.34 L56.77,31.54 L57.82,31.54 L57.83,31.55 Z M59.17,26.3 L59.17,27.38 L58.4,27.38 L58.4,28.28 L59.17,28.28 L59.17,30.08 C59.17,31.12 59.77,31.64 60.67,31.6 C60.99,31.6 61.24,31.55 61.53,31.42 L61.23,30.54 C61.09,30.62 60.9,30.67 60.73,30.67 C60.43,30.67 60.2,30.47 60.2,30.07 L60.2,28.27 L61.36,28.27 L61.36,27.37 L60.2,27.37 L60.2,26.2 L59.17,26.3 Z" id="Path"></path>
            <path d="M23.2,29.47 C23.2,30.12 22.73,30.65 22.02,30.65 C21.32,30.65 20.82,30.12 20.82,29.47 C20.82,28.81 21.27,28.27 22.02,28.27 C22.77,28.27 23.22,28.81 23.22,29.47 M24.24,29.47 C24.24,28.24 23.39,27.27 22.1,27.27 C21.62,27.27 21.06,27.47 20.74,27.95 L20.67,27.37 L19.71,27.37 L19.71,34 L20.75,34 L20.75,31.06 C21.05,31.52 21.7,31.66 22.15,31.66 C23.48,31.66 24.25,30.69 24.25,29.46" id="Shape"></path>
            <path d="M77.72,31.55 L77.72,29.32 C77.72,28.76 78.06,28.28 78.62,28.28 C79.18,28.28 79.42,28.75 79.42,29.3 L79.42,31.55 L80.44,31.55 L80.44,29.3 C80.44,28.04 79.86,27.3 78.67,27.3 C78.13,27.3 77.65,27.48 77.27,28.08 C77.04,27.5 76.54,27.3 76.04,27.3 C75.64,27.3 75.16,27.45 74.94,27.87 L74.86,27.37 L73.9,27.37 L73.9,31.55 L74.93,31.55 L74.93,29.32 C74.93,28.76 75.26,28.26 75.83,28.26 C76.39,28.26 76.68,28.76 76.68,29.32 L76.68,31.55 L77.72,31.55 L77.72,31.55 Z M70.8,28.23 C71.5,28.23 71.93,28.83 71.93,29.47 C71.93,30.1 71.55,30.7 70.8,30.7 C70.04,30.7 69.66,30.1 69.66,29.47 C69.66,28.84 70.06,28.23 70.8,28.23 Z M70.8,27.29 C69.46,27.29 68.63,28.26 68.63,29.46 C68.63,30.66 69.43,31.64 70.8,31.64 C72.16,31.64 72.98,30.66 72.98,29.46 C72.98,28.26 72.12,27.28 70.78,27.28 L70.8,27.29 Z M67.37,30.33 C67.12,30.58 66.79,30.68 66.47,30.68 C65.81,30.68 65.27,30.24 65.27,29.45 C65.27,28.72 65.77,28.21 66.47,28.21 C66.77,28.21 67.07,28.31 67.31,28.54 L67.98,27.84 C67.52,27.4 67.06,27.24 66.48,27.24 C65.25,27.24 64.24,27.96 64.24,29.44 C64.24,30.94 65.24,31.66 66.47,31.66 C67.09,31.66 67.59,31.46 68.07,31 L67.37,30.32 L67.37,30.33 Z M62.32,31.01 C62.32,31.81 63.54,31.81 63.54,31.01 C63.54,30.21 62.32,30.21 62.32,31.01 Z" id="Shape"></path>
            <path d="M5.45,27.37 L5.45,31.55 L6.48,31.55 L6.48,29.35 C6.48,28.58 6.98,28.29 7.52,28.29 C7.86,28.29 8.06,28.37 8.27,28.55 L8.74,27.65 C8.51,27.42 8.09,27.25 7.66,27.25 C7.24,27.25 6.8,27.33 6.48,27.85 L6.4,27.37 L5.45,27.37 L5.45,27.37 Z" id="Path"></path>
            <path d="M12.45,29.47 C12.45,30.1 12.07,30.7 11.31,30.7 C10.57,30.7 10.19,30.1 10.19,29.47 C10.19,28.84 10.59,28.23 11.32,28.23 C12.02,28.23 12.47,28.83 12.47,29.47 M13.51,29.47 C13.51,28.27 12.65,27.29 11.31,27.29 C9.98,27.29 9.15,28.26 9.15,29.46 C9.15,30.66 9.97,31.64 11.32,31.64 C12.69,31.64 13.52,30.66 13.52,29.46" id="Shape"></path>
            <path d="M14.44,27.37 L14.44,29.57 C14.44,30.87 15.17,31.62 16.17,31.62 C16.77,31.62 17.15,31.42 17.59,30.99 L17.64,31.55 L18.57,31.55 L18.57,27.35 L17.54,27.35 L17.54,29.5 C17.54,30.14 17.11,30.68 16.47,30.68 C15.81,30.68 15.47,30.2 15.47,29.56 L15.47,27.36 L14.43,27.36 L14.44,27.37 Z" id="Path"></path>
            <path d="M3.4,29.47 C3.4,30.12 2.92,30.65 2.22,30.65 C1.52,30.65 1.02,30.12 1.02,29.47 C1.02,28.81 1.47,28.27 2.22,28.27 C2.97,28.27 3.42,28.81 3.42,29.47 L3.4,29.47 Z M4.54,32.17 L4.54,27.37 L3.57,27.37 L3.5,27.95 C3.18,27.48 2.62,27.28 2.15,27.28 C0.85,27.28 0,28.24 0,29.48 C0,30.68 0.77,31.65 2.1,31.65 C2.55,31.65 3.2,31.52 3.5,31.05 L3.5,32.01 C3.5,32.63 3,33.09 2.28,33.09 C1.64,33.09 1.15,32.69 1.06,32.19 L0.02,32.19 C0.12,33.27 1.05,34 2.28,34 C3.58,34 4.53,33.18 4.54,32.17 Z M83.18,26.34 L83.48,26.34 L83.48,24.84 L83.14,24.84 L82.67,25.48 L82.19,24.83 L81.86,24.83 L81.86,26.33 L82.14,26.33 L82.14,25.23 L82.62,25.9 L82.68,25.9 L83.16,25.24 L83.16,26.34 L83.18,26.34 Z M80.93,26.34 L81.21,26.34 L81.21,25.08 L81.71,25.08 L81.71,24.83 L80.46,24.83 L80.46,25.08 L80.94,25.08 L80.94,26.34 L80.93,26.34 Z" id="Shape"></path>
        </g>
    </g>
</svg>