<?xml version="1.0" standalone="no"?>
<!DOCTYPE svg PUBLIC "-//W3C//DTD SVG 20010904//EN"
 "http://www.w3.org/TR/2001/REC-SVG-20010904/DTD/svg10.dtd">
<svg version="1.0" xmlns="http://www.w3.org/2000/svg"
 width="304.000000pt" height="304.000000pt" viewBox="0 0 304.000000 304.000000"
 preserveAspectRatio="xMidYMid meet">
<metadata>
Created by potrace 1.11, written by Peter Selinger 2001-2013
</metadata>
<g transform="translate(0.000000,304.000000) scale(0.100000,-0.100000)"
fill="#000000" stroke="none">
<path d="M973 2685 c-47 -82 -87 -153 -89 -156 -2 -4 269 -6 602 -5 405 1 608
-2 614 -9 7 -9 321 -544 372 -635 11 -19 70 -120 130 -223 l110 -188 76 128
c41 70 82 139 90 153 14 24 11 32 -73 175 -48 83 -98 170 -112 195 -14 24 -46
80 -72 125 -52 88 -112 190 -246 423 -49 84 -93 156 -99 160 -6 4 -282 7 -614
7 l-603 0 -86 -150z"/>
<path d="M753 2272 c-16 -2 -36 -28 -74 -95 -29 -51 -116 -202 -194 -337 -78
-135 -192 -331 -252 -435 l-109 -191 234 -404 c128 -223 245 -425 259 -450 92
-162 116 -200 131 -201 23 -1 1138 -1 1178 0 31 1 37 10 225 338 107 185 206
357 221 382 15 25 33 57 41 71 7 14 44 79 82 144 l69 120 -34 60 c-18 34 -78
137 -132 229 -54 93 -98 171 -98 173 0 3 -8 17 -19 32 -10 15 -87 147 -172
295 l-153 267 -41 1 c-211 2 -1145 3 -1162 1z m1243 -677 c117 -203 214 -374
214 -379 0 -5 -37 -72 -81 -150 -45 -77 -93 -161 -107 -186 -14 -25 -44 -76
-67 -115 -22 -38 -44 -77 -48 -85 -4 -8 -13 -24 -20 -35 -7 -11 -34 -57 -60
-103 l-48 -82 -436 2 -437 3 -49 85 c-27 47 -124 216 -216 375 l-167 291 207
359 c114 198 213 368 219 378 10 16 39 17 446 15 l435 -3 215 -370z"/>
<path d="M1220 1732 c-52 -5 -166 -34 -186 -47 l-22 -14 24 -82 c13 -45 25
-83 27 -85 1 -2 23 4 47 13 31 12 79 17 155 17 93 1 115 -2 144 -19 46 -27 72
-65 74 -106 2 -29 -1 -33 -18 -30 -11 2 -47 5 -80 5 -225 1 -375 -71 -441
-211 -54 -113 -38 -262 37 -346 54 -62 117 -88 247 -101 82 -8 200 28 256 78
l29 26 16 -23 c35 -52 99 -90 141 -82 81 14 91 18 109 44 l20 28 -21 20 c-43
43 -55 111 -58 316 -2 232 -3 246 -20 322 -39 183 -137 259 -355 273 -55 4
-111 6 -125 4z m250 -527 c18 -6 20 -16 20 -83 0 -97 -22 -149 -76 -183 -53
-33 -184 -35 -226 -4 -34 25 -51 74 -44 125 10 70 50 112 131 135 44 14 165
19 195 10z"/>
</g>
</svg>
